<?xml version="1.0" standalone="no"?>
<!DOCTYPE svg PUBLIC "-//W3C//DTD SVG 20010904//EN"
 "http://www.w3.org/TR/2001/REC-SVG-20010904/DTD/svg10.dtd">
<svg version="1.0" xmlns="http://www.w3.org/2000/svg"
 width="500.000000pt" height="500.000000pt" viewBox="0 0 500.000000 500.000000"
 preserveAspectRatio="xMidYMid meet">

<g transform="translate(0.000000,500.000000) scale(0.100000,-0.100000)"
fill="#000000" stroke="none">
<path d="M1244 4983 c-3 -10 -11 -28 -16 -40 -8 -15 -8 -26 -1 -35 23 -28 -3
-308 -31 -336 -9 -10 -44 -14 -117 -16 -153 -2 -157 -8 -61 -89 44 -37 83 -67
86 -67 3 0 6 7 6 15 0 8 17 19 43 25 23 6 51 14 61 17 17 5 18 1 12 -27 -3
-18 -6 -41 -6 -52 0 -11 -14 -33 -30 -50 -28 -27 -35 -30 -75 -23 -41 6 -45 4
-45 -15 0 -20 3 -21 58 -14 31 3 63 11 70 16 9 8 12 -10 12 -87 l0 -96 -26 20
c-47 37 -50 24 -27 -131 4 -30 2 -37 -16 -42 -66 -19 -61 -21 -61 26 0 53 -15
109 -32 120 -30 19 -38 8 -38 -51 0 -32 -3 -79 -6 -104 -7 -46 -7 -46 -61 -62
-29 -9 -57 -14 -62 -11 -10 7 -124 -23 -131 -34 -3 -5 -12 -8 -20 -8 -35 2
-50 -3 -50 -18 0 -21 62 -45 124 -48 52 -2 173 15 193 27 18 11 24 -25 25
-133 0 -55 3 -100 8 -100 4 0 10 -62 14 -137 3 -76 7 -151 9 -168 l2 -30 -55
4 c-30 1 -61 8 -67 13 -7 6 -20 8 -29 4 -20 -8 -11 -38 27 -90 28 -38 39 -73
20 -61 -5 3 -13 1 -16 -5 -4 -6 -36 -29 -72 -52 -62 -39 -178 -162 -168 -178
5 -9 -67 -78 -111 -106 -16 -11 -51 -40 -79 -66 -37 -35 -47 -50 -39 -58 9 -9
24 3 60 44 27 31 57 56 67 56 20 0 157 128 160 150 5 32 62 92 131 137 39 27
71 46 72 43 0 -3 8 1 17 9 25 20 21 53 -13 100 -29 40 -30 41 -8 37 13 -3 40
-8 61 -11 20 -3 37 -9 37 -13 0 -3 -9 -42 -19 -87 -60 -247 -59 -240 -68 -535
-8 -309 -6 -499 6 -514 7 -8 14 -54 16 -102 4 -87 22 -200 45 -279 6 -22 16
-65 22 -95 5 -30 18 -83 29 -118 10 -34 19 -71 19 -82 0 -11 4 -28 10 -38 18
-31 54 -137 52 -150 -2 -7 5 -29 16 -50 46 -90 85 -184 83 -197 -1 -3 13 -31
29 -62 17 -32 29 -66 26 -77 -3 -11 6 -33 21 -52 14 -19 23 -40 20 -48 -3 -7
12 -40 34 -72 21 -33 39 -63 39 -67 0 -4 10 -21 21 -37 13 -16 19 -35 15 -45
-3 -9 -1 -25 5 -36 6 -11 12 -30 14 -41 3 -11 6 -22 7 -23 11 -10 129 -65 135
-63 13 3 56 -14 95 -38 22 -14 53 -24 73 -24 20 0 44 -4 54 -10 31 -16 280
-68 391 -81 153 -18 564 -17 575 1 3 4 48 15 102 25 54 10 142 31 197 47 54
16 107 27 117 25 11 -3 19 -1 19 4 0 5 6 9 13 9 7 0 30 9 52 20 22 11 43 20
47 20 5 0 39 14 76 31 37 18 74 32 82 33 14 1 14 7 3 48 -3 11 1 20 11 24 9 3
16 11 16 16 0 6 10 27 22 47 12 19 23 47 23 61 1 34 33 102 55 117 16 11 32
52 34 88 2 17 28 88 46 125 9 19 23 51 30 70 7 19 26 71 42 115 16 44 34 96
41 115 6 19 15 38 19 41 4 3 10 24 12 47 2 24 8 48 14 55 5 7 17 49 28 94 10
45 22 79 26 77 4 -3 7 5 6 18 -1 13 3 39 10 58 6 19 14 61 18 93 3 31 9 57 13
57 14 0 44 228 43 325 0 68 4 109 13 129 11 20 12 39 6 67 -5 21 -6 37 -2 34
12 -7 5 180 -17 459 -9 113 -5 161 17 195 7 11 18 7 55 -18 46 -32 50 -42 46
-104 -1 -16 17 -60 43 -110 25 -45 52 -108 60 -140 20 -77 58 -138 115 -186
27 -23 59 -64 75 -96 27 -52 37 -62 49 -49 12 11 -48 102 -112 169 -77 80 -86
95 -100 161 -10 47 -86 212 -103 225 -5 3 -5 22 -2 41 l7 36 51 -34 c28 -19
54 -34 57 -34 3 0 35 -36 71 -80 35 -43 72 -79 82 -80 20 0 21 6 6 51 -13 38
-73 106 -101 115 -10 3 -45 37 -77 76 -44 52 -61 81 -66 112 -4 22 -9 49 -12
59 -3 13 8 8 44 -19 26 -20 85 -55 130 -76 68 -33 85 -38 102 -28 31 16 13 41
-46 64 -67 27 -178 100 -198 130 -14 21 -15 39 -10 103 8 84 20 107 49 91 26
-15 119 -15 124 0 2 7 10 12 17 12 31 0 19 33 -41 113 l-65 86 16 78 c9 43 23
91 31 107 8 16 13 30 12 31 -2 1 -14 9 -28 18 -13 9 -28 17 -32 17 -10 0 -48
-106 -48 -135 0 -13 -4 -26 -8 -29 -6 -4 -144 169 -174 218 -4 7 10 11 42 11
52 0 173 51 167 69 -6 15 -59 9 -110 -12 -37 -16 -50 -15 -44 1 7 18 -1 27
-46 57 -33 22 -37 29 -32 55 15 79 17 125 6 125 -6 0 -11 -8 -11 -18 0 -10 -7
-39 -16 -65 l-16 -47 -44 32 c-41 29 -44 35 -44 77 0 73 -12 151 -23 151 -5 0
-7 -18 -2 -47 7 -47 6 -47 -12 -31 -11 10 -34 21 -51 24 -24 5 -32 12 -33 28
0 11 -3 29 -5 38 -13 47 -15 78 -7 78 14 0 183 -58 218 -75 17 -8 45 -17 63
-20 18 -3 55 -14 83 -26 64 -25 73 -18 21 15 -22 14 -43 30 -46 35 -4 6 -29
22 -56 37 -27 15 -68 49 -91 76 l-42 50 -56 -4 c-53 -5 -54 -4 -26 8 50 22 79
16 130 -23 42 -33 55 -38 101 -37 60 0 109 27 109 60 0 20 -32 28 -150 38 -27
2 -61 8 -75 14 -14 5 -62 13 -107 17 l-82 7 -6 32 c-3 17 -5 78 -3 136 l3 105
48 -2 c31 -1 47 3 47 11 0 19 -22 36 -47 36 -13 0 -98 19 -190 42 -152 38
-167 44 -182 70 -17 29 -36 36 -44 16 -4 -10 -6 -10 -6 0 -1 7 -14 12 -32 12
-24 0 -30 -4 -25 -15 7 -19 -5 -19 -74 0 -30 8 -97 15 -149 15 -83 0 -98 -3
-117 -21 l-23 -21 -27 21 c-16 13 -41 21 -63 21 l-36 0 39 -23 c21 -12 37 -26
35 -31 -2 -5 -41 -11 -86 -12 l-82 -3 -21 34 c-19 30 -27 35 -61 35 -38 0 -38
0 -27 -27 6 -16 24 -45 40 -65 25 -33 26 -38 11 -38 -10 0 -66 -3 -125 -5 -64
-3 -110 -1 -113 5 -7 12 -171 2 -197 -11 -15 -8 -16 -6 -7 20 14 41 34 54 119
81 41 14 79 28 85 32 16 14 -151 6 -177 -8 -12 -7 -22 -15 -20 -18 6 -14 -51
-75 -79 -85 -16 -5 -29 -15 -29 -21 0 -6 -12 -10 -27 -8 -23 2 -27 7 -25 28 6
38 37 65 91 79 28 7 55 19 62 27 15 18 -2 18 -27 -1 -10 -8 -27 -15 -38 -15
-15 0 -16 3 -6 15 11 13 2 15 -74 15 -77 0 -86 -2 -86 -19 0 -13 -8 -18 -27
-19 -54 -2 -65 -6 -80 -29 -8 -12 -21 -23 -28 -23 -7 0 2 15 19 34 17 18 34
29 37 24 3 -5 14 1 24 12 18 19 18 20 -1 20 -10 0 -35 -16 -55 -36 -30 -29
-43 -35 -62 -30 -18 4 -24 11 -20 25 3 12 -2 20 -16 24 -12 3 -21 1 -21 -5 0
-12 -63 0 -68 13 -2 5 -73 9 -158 9 -139 0 -158 -2 -182 -20 -15 -11 -41 -22
-58 -26 -28 -5 -31 -3 -30 18 1 18 -5 24 -27 26 -19 2 -29 -2 -33 -15z m1956
-24 c0 -4 -10 -9 -22 -11 -15 -2 -25 -15 -35 -45 l-15 -43 -36 15 c-64 28 -66
33 -17 75 42 37 46 38 85 28 22 -6 40 -14 40 -19z m-1658 -27 c4 -4 3 -13 -1
-21 -8 -12 -14 -12 -40 0 -43 19 -42 44 1 35 18 -3 36 -10 40 -14z m1756 11
c-10 -2 -26 -2 -35 0 -10 3 -2 5 17 5 19 0 27 -2 18 -5z m-1564 -12 c14 -5 16
-10 8 -15 -15 -9 -69 2 -77 15 -7 11 42 11 69 0z m1580 -25 c49 4 68 2 95 -14
55 -30 61 -49 27 -77 l-29 -23 20 -28 c22 -32 46 -95 38 -102 -2 -2 -20 5 -40
17 -20 11 -46 21 -59 21 -12 0 -49 9 -82 20 -51 17 -66 28 -93 67 -32 44 -33
48 -21 87 18 62 28 69 58 46 21 -17 35 -19 86 -14z m-1317 -3 c-9 -9 -20 -13
-24 -9 -4 4 -1 11 7 16 25 16 35 11 17 -7z m97 -21 c-7 -32 -24 -35 -24 -3 0
16 20 44 27 37 2 -1 0 -17 -3 -34z m1442 0 c-10 -2 -22 0 -28 6 -6 6 0 7 19 4
21 -5 23 -7 9 -10z m-2241 -76 c8 -43 15 -98 15 -122 0 -40 -2 -44 -25 -44
-25 0 -25 1 -25 88 0 84 9 167 17 159 2 -2 10 -39 18 -81z m81 47 c-3 -21 -11
-56 -18 -78 l-11 -40 -13 60 c-20 90 -19 95 17 95 31 0 31 -1 25 -37z m1640
26 c3 -6 27 -20 51 -31 35 -15 44 -24 41 -41 -3 -20 -8 -22 -65 -20 -67 2
-103 15 -103 38 0 10 11 15 35 15 24 0 35 5 35 15 0 8 -9 15 -21 15 -11 0 -17
5 -14 10 8 13 32 13 41 -1z m-1504 -19 c6 0 7 -13 3 -32 -11 -51 -18 -55 -31
-17 -17 48 -17 62 2 55 9 -3 20 -6 26 -6z m67 -27 c-7 -10 -15 -20 -16 -22 -2
-2 -3 5 -3 17 0 14 6 22 16 22 14 0 15 -3 3 -17z m1996 7 c0 -1 20 -3 45 -4
25 -1 60 -6 78 -10 l32 -8 0 -82 c0 -44 -3 -105 -7 -134 l-6 -53 -41 6 c-23 4
-45 12 -51 19 -5 7 -20 18 -32 25 -15 8 -23 21 -23 39 0 15 -6 52 -14 82 -7
30 -16 71 -20 91 -6 33 -4 35 16 33 13 -1 23 -3 23 -4z m-1820 -10 c7 -12 -36
-30 -71 -30 -26 0 -31 9 -12 28 15 15 74 16 83 2z m-145 -20 c0 -5 -4 -10 -10
-10 -5 0 -10 5 -10 10 0 6 5 10 10 10 6 0 10 -4 10 -10z m-132 -37 c10 -33 9
-40 -5 -51 -24 -17 -31 -4 -25 46 5 52 15 54 30 5z m1436 8 c2 -3 -14 -7 -35
-8 -31 -1 -38 2 -29 12 10 12 56 9 64 -4z m-1210 -12 c-22 -21 -44 -19 -44 4
0 7 15 14 33 15 l32 3 -21 -22z m150 13 c3 -5 -10 -16 -28 -25 -28 -13 -34
-13 -32 -2 1 8 6 18 11 22 4 4 5 2 1 -4 -4 -7 -2 -13 4 -13 6 0 13 7 16 15 7
16 20 20 28 7z m760 2 c18 -7 12 -24 -8 -24 -7 0 -21 7 -32 15 -19 14 -19 14
3 15 12 0 28 -3 37 -6z m546 -15 c0 -5 -4 -9 -10 -9 -5 0 -10 7 -10 16 0 8 5
12 10 9 6 -3 10 -10 10 -16z m-1570 1 c0 -5 -5 -10 -11 -10 -5 0 -7 5 -4 10 3
6 8 10 11 10 2 0 4 -4 4 -10z m636 -5 c-26 -19 -42 -19 -26 0 7 8 20 15 29 15
13 -1 13 -3 -3 -15z m167 6 c15 -6 12 -10 -18 -24 -47 -22 -81 -9 -44 17 25
17 34 18 62 7z m135 -33 c20 -20 14 -28 -21 -28 -42 0 -52 9 -29 26 21 17 35
17 50 2z m192 -4 c0 -2 -7 -4 -15 -4 -8 0 -15 4 -15 10 0 5 7 7 15 4 8 -4 15
-8 15 -10z m250 6 l25 -7 -28 -12 c-50 -20 -88 -11 -66 16 12 14 30 15 69 3z
m-1310 -19 c0 -11 -39 -41 -53 -41 -4 0 0 11 10 25 18 24 43 34 43 16z m360
-18 c3 -3 -6 -14 -19 -24 -20 -16 -32 -18 -70 -12 -25 4 -58 7 -73 8 -30 0
-37 19 -13 32 14 8 166 5 175 -4z m-538 -30 c-6 -33 -21 -55 -33 -47 -14 8
-10 41 7 58 23 23 32 19 26 -11z m1558 23 c0 -3 -4 -8 -10 -11 -5 -3 -10 -1
-10 4 0 6 5 11 10 11 6 0 10 -2 10 -4z m-759 -27 c-16 -6 -28 -6 -35 1 -7 7 1
10 25 9 32 0 33 -1 10 -10z m972 -16 c9 -20 9 -27 0 -30 -7 -3 -28 -18 -49
-34 -56 -45 -95 -36 -97 22 -2 30 1 34 43 50 65 26 88 24 103 -8z m-401 -7
c10 -7 15 -16 12 -19 -9 -8 -44 11 -44 23 0 13 12 12 32 -4z m-1293 -27 c-6
-12 -8 -23 -5 -26 3 -3 -2 -19 -10 -35 -21 -41 -27 -30 -10 20 8 22 12 43 9
45 -8 9 7 28 18 22 5 -4 5 -14 -2 -26z m-179 11 c0 -5 -2 -10 -4 -10 -3 0 -8
5 -11 10 -3 6 -1 10 4 10 6 0 11 -4 11 -10z m-106 -25 c-4 -8 -8 -15 -10 -15
-2 0 -4 7 -4 15 0 8 4 15 10 15 5 0 7 -7 4 -15z m30 -90 c-10 -47 -24 -88 -35
-100 -14 -15 -19 -16 -19 -5 0 30 31 144 43 159 10 12 9 13 -1 7 -12 -7 -12
-4 -2 14 23 43 30 5 14 -75z m76 57 c0 -15 -5 -34 -10 -42 -7 -11 -10 -2 -10
33 0 30 4 46 10 42 6 -3 10 -18 10 -33z m82 -2 c-2 -16 -6 -30 -8 -30 -2 0 -4
14 -4 30 0 17 4 30 8 30 5 0 7 -13 4 -30z m168 22 c0 -15 -22 -30 -36 -25 -10
4 -11 8 -1 19 13 15 37 19 37 6z m105 -22 c-28 -12 -47 -12 -40 0 3 6 18 10
33 9 24 0 25 -1 7 -9z m-515 -85 c-6 -7 -27 -16 -48 -19 -20 -4 -49 -12 -64
-17 -25 -10 -32 -7 -76 32 -60 54 -53 59 73 57 70 -2 88 1 102 15 17 17 18 16
21 -18 2 -20 -2 -42 -8 -50z m2055 65 c3 -5 2 -10 -4 -10 -5 0 -13 5 -16 10
-3 6 -2 10 4 10 5 0 13 -4 16 -10z m-1325 -4 c0 -2 -7 -7 -16 -10 -8 -3 -12
-2 -9 4 6 10 25 14 25 6z m157 -22 c-3 -3 -12 -4 -19 -1 -8 3 -5 6 6 6 11 1
17 -2 13 -5z m1535 -31 c16 -14 23 -15 38 -5 26 16 40 15 40 -2 0 -15 -14 -22
-63 -30 -22 -4 -30 0 -42 25 -18 34 -4 40 27 12z m-48 -8 c3 -8 1 -15 -3 -15
-5 0 -11 7 -15 15 -3 8 -1 15 3 15 5 0 11 -7 15 -15z m-308 -29 c10 -8 15 -18
11 -22 -4 -4 -17 2 -29 14 -25 25 -13 30 18 8z m-1210 -15 c-27 -14 -44 -17
-59 -11 l-22 9 23 0 c12 1 22 6 22 11 0 6 17 10 37 10 l37 0 -38 -19z m128 4
c-6 -16 -24 -21 -24 -7 0 11 11 22 21 22 5 0 6 -7 3 -15z m47 2 c-1 -4 -1 -14
-1 -22 0 -8 -9 -15 -20 -15 -23 0 -24 4 -9 31 10 19 31 23 30 6z m1728 -59
c24 -27 61 -58 82 -69 21 -10 39 -21 39 -24 0 -8 -59 2 -72 12 -7 5 -66 27
-130 48 -65 21 -118 42 -118 46 0 12 18 20 69 34 62 17 78 11 130 -47z m-2658
-19 c-6 -16 -10 -18 -10 -7 -1 22 12 55 16 42 2 -6 -1 -22 -6 -35z m2086 21
c29 -17 53 -63 41 -75 -8 -9 -86 55 -91 75 -7 25 9 25 50 0z m289 0 c8 0 14
-10 14 -23 0 -13 3 -27 7 -31 7 -7 15 -46 10 -46 -5 0 -77 97 -77 105 0 4 7 4
16 1 9 -3 22 -6 30 -6z m-480 -25 c9 -14 14 -28 11 -31 -7 -8 -116 17 -123 28
-3 4 4 8 15 8 11 0 23 5 26 10 12 20 54 10 71 -15z m-1938 -208 c-7 -62 -15
-96 -22 -94 -15 5 -8 287 8 306 18 23 27 -100 14 -212z m481 186 l54 -6 -53
-24 c-29 -13 -82 -28 -119 -34 -52 -8 -73 -17 -98 -42 l-33 -31 0 25 c1 30 50
86 93 104 36 16 76 18 156 8z m1471 -38 c19 -7 37 -20 38 -29 5 -22 -11 -18
-94 24 -58 29 -59 30 -19 23 22 -3 56 -11 75 -18z m-1883 -7 c-3 -8 -6 -5 -6
6 -1 11 2 17 5 13 3 -3 4 -12 1 -19z m531 4 c2 -8 -10 -12 -40 -11 l-43 1 30
13 c33 16 47 15 53 -3z m1828 -54 l19 -23 -25 20 c-14 11 -27 21 -29 22 -2 2
0 3 6 3 5 0 18 -10 29 -22z m-2369 -10 c-3 -8 -6 -5 -6 6 -1 11 2 17 5 13 3
-3 4 -12 1 -19z m800 -40 c184 -28 213 -35 222 -53 10 -20 10 -20 10 1 1 21 2
21 95 -10 108 -36 133 -54 142 -105 4 -20 15 -53 26 -75 12 -23 16 -42 11 -47
-6 -6 -53 -2 -116 8 l-106 17 -17 75 c-22 105 -35 130 -28 56 4 -33 11 -70 15
-83 5 -13 9 -28 9 -33 0 -12 -89 -3 -170 18 -69 18 -138 33 -170 37 -44 5 -94
17 -115 26 -19 8 -249 55 -305 62 -20 2 -25 -2 -27 -24 -2 -29 7 -34 67 -37
19 -1 62 -8 95 -16 54 -13 55 -14 15 -10 -25 2 -99 7 -165 11 -66 3 -126 11
-132 16 -14 11 -8 84 9 104 4 6 41 28 81 48 74 37 81 38 272 45 41 1 157 -12
282 -31z m1737 -8 c15 -15 0 -22 -32 -15 -17 3 -33 13 -36 22 -5 13 -1 14 26
9 18 -3 37 -11 42 -16z m14 -41 c13 -5 22 -17 22 -29 0 -28 -9 -25 -55 16 -41
36 -36 38 33 13z m-388 -40 c4 -8 12 -24 19 -36 9 -20 9 -23 -6 -23 -20 0 -63
38 -63 56 0 25 39 28 50 3z m244 -21 c3 -7 7 -31 10 -52 5 -34 3 -38 -9 -25
-18 19 -31 89 -16 89 6 0 13 -6 15 -12z m-2541 -79 l-7 -44 -6 40 c-4 22 -10
51 -14 65 l-8 25 21 -21 c19 -17 21 -27 14 -65z m1502 1 c3 -5 13 -10 21 -10
20 0 274 -121 274 -130 0 -24 -96 -21 -179 7 -24 7 -51 11 -58 9 -8 -3 -31 0
-53 6 -30 10 -42 21 -58 54 -12 23 -24 58 -28 79 l-7 37 41 -21 c22 -11 43
-25 47 -31z m210 0 c22 -10 59 -24 83 -31 43 -13 49 -24 19 -43 -13 -8 -38 1
-112 39 -52 26 -95 52 -95 56 0 12 57 0 105 -21z m405 20 c0 -5 -8 -10 -17
-10 -9 0 -25 -7 -35 -17 -10 -9 -21 -13 -25 -9 -4 4 -1 11 7 16 8 6 11 10 5
11 -15 1 27 17 48 18 9 1 17 -3 17 -9z m307 -35 l20 -44 -37 37 c-37 36 -42
52 -16 52 7 0 21 -20 33 -45z m-2367 -1 c0 -8 -4 -14 -10 -14 -5 0 -10 9 -10
21 0 11 5 17 10 14 6 -3 10 -13 10 -21z m137 12 c-3 -8 -3 -17 1 -20 15 -16
-1 -102 -30 -153 -16 -29 -31 -53 -31 -53 -4 0 2 129 8 158 9 49 26 82 43 82
8 0 12 -6 9 -14z m338 -16 c50 -5 101 -12 115 -15 14 -3 61 -7 105 -10 90 -6
171 -20 230 -40 58 -21 249 -52 365 -60 111 -8 126 -14 154 -64 l25 -47 128
-32 c70 -17 222 -50 337 -73 115 -22 219 -46 233 -52 22 -10 269 -365 260
-374 -2 -2 -25 6 -51 17 -26 11 -50 19 -54 18 -12 -3 -76 14 -87 22 -10 8
-129 34 -235 51 -60 10 -250 1 -250 -11 0 -4 -20 -11 -45 -14 -24 -4 -47 -12
-51 -17 -7 -12 -112 -61 -136 -64 -18 -2 -128 -71 -128 -81 0 -3 5 -2 12 2 6
4 -3 -11 -22 -34 -18 -23 -37 -42 -42 -42 -10 0 -10 -71 0 -86 4 -6 33 -30 65
-52 55 -39 144 -75 212 -86 170 -30 443 -31 530 -3 68 22 307 77 334 77 11 0
21 4 21 8 0 8 64 42 79 42 5 0 7 -8 4 -19 -5 -21 26 -38 38 -20 4 8 13 3 24
-15 14 -21 15 -31 6 -57 -6 -18 -11 -42 -11 -54 0 -22 -14 -55 -119 -278 -51
-110 -51 -122 -5 -137 32 -11 39 -10 65 9 l29 22 0 -46 c0 -33 4 -45 15 -45
10 0 15 10 15 34 0 43 45 143 56 125 4 -7 2 -15 -4 -17 -7 -2 -12 -12 -12 -22
0 -9 -6 -36 -14 -58 -12 -32 -12 -47 -3 -72 15 -39 26 -35 48 20 10 25 19 41
19 35 1 -5 8 10 15 35 11 42 12 38 12 -77 0 -68 -4 -123 -8 -123 -5 0 -8 -58
-7 -128 1 -100 -3 -134 -15 -153 -8 -13 -18 -49 -22 -79 -3 -30 -13 -89 -22
-130 -9 -41 -17 -86 -19 -100 -4 -37 -60 -244 -72 -266 -5 -10 -10 -37 -10
-58 0 -25 -6 -42 -16 -48 -9 -5 -16 -17 -16 -27 0 -10 -11 -44 -25 -75 -14
-31 -25 -63 -25 -72 0 -8 -11 -37 -25 -64 -14 -27 -25 -58 -25 -69 0 -11 -4
-22 -9 -26 -10 -5 -44 -97 -47 -125 -4 -34 -31 -95 -41 -93 -6 1 -16 -12 -22
-30 -6 -17 -23 -44 -38 -59 -22 -23 -25 -31 -16 -50 8 -18 4 -32 -20 -73 -17
-27 -30 -56 -30 -63 0 -19 -50 -51 -89 -59 -18 -3 -52 -17 -75 -30 -23 -14
-46 -22 -51 -19 -5 3 -33 -4 -63 -16 -66 -25 -80 -29 -319 -83 -95 -21 -150
-27 -316 -32 -264 -7 -462 18 -694 87 -36 11 -72 20 -80 20 -16 0 -63 17 -123
44 -21 9 -41 15 -45 12 -5 -3 -30 8 -56 24 -49 28 -76 69 -76 114 0 26 -23 74
-68 138 -17 26 -32 58 -32 71 0 13 -9 36 -20 50 -11 14 -20 35 -20 46 0 12 -4
29 -9 39 -5 9 -15 33 -23 52 -24 57 -59 132 -79 171 -11 20 -19 45 -19 55 0
11 -7 28 -15 38 -8 11 -15 30 -15 43 0 13 -6 37 -14 52 -26 49 -88 264 -96
333 -5 37 -13 75 -18 85 -18 33 -51 216 -55 303 -3 47 -7 92 -10 100 -5 13 -9
41 -19 130 -8 79 22 645 40 750 l8 45 6 -72 c4 -40 5 -87 2 -105 -7 -45 19
-163 36 -163 10 0 13 57 14 286 1 180 6 292 12 300 6 8 11 49 12 93 2 79 31
174 50 162 5 -3 12 -40 16 -83 3 -42 11 -82 16 -87 6 -6 10 -27 10 -48 0 -33
-5 -41 -39 -62 -22 -14 -42 -30 -45 -35 -4 -5 12 -22 34 -38 32 -23 40 -34 40
-60 0 -38 24 -46 33 -12 5 17 11 20 29 15 187 -55 294 -75 439 -81 158 -8 331
6 356 27 7 5 35 12 62 14 26 2 76 13 110 24 34 12 68 19 76 16 22 -8 80 47
105 99 23 47 20 68 -9 63 -10 -2 -34 11 -54 28 -102 91 -254 129 -467 119 -74
-4 -186 -8 -249 -10 -112 -4 -171 -12 -181 -24 -18 -22 -166 -78 -177 -67 -8
8 -6 55 7 141 6 39 11 79 11 90 0 57 44 144 63 124 3 -2 7 -42 10 -88 3 -46 8
-86 11 -89 3 -3 18 -1 33 4 24 9 27 15 26 54 0 25 -3 62 -6 83 l-7 38 37 -3
c33 -3 37 -1 37 21 0 17 -10 30 -35 44 -55 30 -64 41 -50 66 6 12 14 19 18 17
18 -11 32 14 37 69 4 33 11 79 18 102 15 56 28 58 252 33z m1695 -40 c19 -16
31 -30 25 -30 -5 0 -27 -4 -47 -9 -28 -6 -42 -5 -58 6 l-21 15 22 24 c29 31
36 30 79 -6z m460 -42 c0 -26 -12 -22 -50 17 -27 28 -32 38 -21 44 17 11 71
-35 71 -61z m-746 24 c13 -7 -35 -31 -63 -32 l-24 0 22 24 c21 23 35 24 65 8z
m-1944 -94 c-1 -75 -8 -117 -38 -221 l-36 -128 -13 73 c-6 40 -19 93 -28 117
-16 46 -21 187 -6 209 7 12 80 40 109 41 10 1 13 -21 12 -91z m2767 56 c23 -6
43 -38 43 -70 0 -25 -78 27 -90 60 -8 24 -7 27 6 22 9 -3 27 -9 41 -12z m-347
-58 c0 -6 -7 -2 -15 8 -8 11 -15 25 -15 30 0 6 7 2 15 -8 8 -11 15 -25 15 -30z
m-2610 15 c0 -28 -24 -35 -153 -49 -37 -5 -73 -4 -80 0 -8 5 -6 8 6 8 10 0 16
4 13 8 -6 10 82 34 142 38 24 1 47 5 50 8 11 12 22 5 22 -13z m2225 -11 l28
-30 -29 9 c-47 14 -64 23 -64 31 0 5 8 11 18 13 9 3 17 5 18 6 0 0 13 -12 29
-29z m650 -49 c3 -13 3 -26 0 -29 -10 -10 -80 55 -83 77 l-4 23 41 -24 c23
-13 43 -33 46 -47z m-1045 29 c11 -7 8 -10 -13 -15 -15 -4 -32 -16 -38 -26 -5
-11 -16 -19 -24 -19 -14 0 -55 55 -55 73 0 10 108 -2 130 -13z m675 -11 c29
-13 27 -14 -48 -17 -76 -3 -107 6 -107 30 0 14 118 4 155 -13z m545 -20 c0 -5
-4 -9 -10 -9 -5 0 -10 7 -10 16 0 8 5 12 10 9 6 -3 10 -10 10 -16z m-930 -13
c62 -9 113 -23 145 -39 61 -32 51 -32 -90 -7 -60 11 -132 22 -160 26 -56 6
-66 11 -45 24 20 13 37 12 150 -4z m831 -47 c11 -23 18 -43 15 -46 -13 -13
-44 11 -55 45 -7 20 -15 43 -18 50 -13 33 38 -11 58 -49z m-2668 -26 c-5 -48
-37 -143 -46 -143 -2 0 6 45 16 100 21 108 41 136 30 43z m2593 -9 c17 -30 17
-34 1 -58 -30 -45 -38 -36 -41 51 -1 11 -4 25 -8 29 -5 4 -8 13 -8 21 0 22 36
-6 56 -43z m-337 40 c21 -5 37 -16 46 -35 21 -40 19 -42 -22 -34 -42 7 -124
55 -117 67 6 10 50 10 93 2z m-2214 -44 c-5 -8 -11 -8 -17 -2 -6 6 -7 16 -3
22 5 8 11 8 17 2 6 -6 7 -16 3 -22z m2663 5 c-3 -3 -9 2 -12 12 -6 14 -5 15 5
6 7 -7 10 -15 7 -18z m51 -29 c10 -12 8 -13 -8 -9 -12 3 -21 9 -21 14 0 14 16
11 29 -5z m-72 -28 c7 -6 13 -25 13 -42 0 -18 4 -36 9 -41 11 -12 30 -102 23
-109 -3 -3 -27 31 -54 75 -28 44 -56 83 -63 86 -11 4 -11 10 -3 29 10 21 17
24 37 19 14 -4 32 -11 38 -17z m78 -30 c15 -12 38 -44 51 -72 12 -28 34 -68
47 -90 22 -35 23 -42 11 -75 -17 -52 -43 -48 -62 9 -18 56 -48 140 -73 203
-21 52 -15 58 26 25z m168 -63 c-4 -11 -7 -28 -7 -37 0 -9 -4 -14 -9 -11 -5 3
-6 -4 -3 -15 8 -24 -7 -37 -22 -19 -5 6 -24 42 -40 80 -28 61 -29 66 -10 56
16 -9 24 -7 37 5 15 16 18 15 38 -11 15 -19 21 -35 16 -48z m-280 -12 c48 -76
68 -126 58 -142 -9 -14 -45 25 -95 102 -28 43 -36 65 -32 83 4 13 11 24 16 24
6 0 30 -30 53 -67z m-307 15 c39 -16 58 -31 79 -64 20 -32 35 -44 51 -44 39 0
54 -36 42 -100 -5 -30 -7 -82 -4 -115 4 -34 2 -55 -3 -50 -16 18 -271 395
-271 401 0 9 46 -3 106 -28z m-2377 -86 c-17 -60 -16 -54 -18 -104 -1 -32 -4
-39 -11 -27 -14 25 -15 90 0 134 27 84 53 81 29 -3z m2828 -108 c-3 -3 -17 -2
-32 2 -21 5 -25 11 -20 28 3 11 9 39 12 61 l7 40 18 -64 c11 -34 17 -65 15
-67z m256 67 c25 -33 43 -62 40 -65 -12 -11 -74 -6 -103 9 -28 14 -28 16 -16
47 7 18 16 41 19 51 4 9 8 17 10 17 2 0 24 -27 50 -59z m-380 -86 c21 -19 26
-30 21 -50 -9 -36 -19 -31 -40 18 -10 23 -20 45 -22 50 -8 15 14 6 41 -18z
m-1810 -8 c115 -34 217 -111 203 -153 -8 -24 -125 -77 -226 -103 -103 -27
-204 -40 -340 -42 -106 -1 -115 0 -116 17 0 11 -1 39 -2 63 -2 36 -8 50 -37
77 -22 20 -50 36 -73 39 -20 3 -52 13 -70 21 -91 40 -192 -21 -192 -116 0 -23
-18 -26 -43 -7 -14 10 -15 18 -6 52 15 55 19 59 101 86 40 13 76 28 79 33 11
14 120 35 214 41 49 3 90 7 91 8 1 1 83 2 181 1 136 0 192 -4 236 -17z m1147
-37 c25 -6 70 -16 100 -22 30 -6 60 -14 65 -18 6 -4 37 -13 70 -20 122 -26
255 -103 255 -148 0 -8 -3 -12 -7 -9 -9 10 -43 -44 -36 -56 3 -6 1 -7 -6 -3
-7 5 -13 -3 -17 -22 -5 -23 -14 -32 -42 -40 -86 -26 -164 -44 -267 -63 -60
-11 -130 -24 -155 -29 -52 -9 -294 5 -354 21 -34 9 -38 13 -25 22 36 27 47 61
48 142 0 103 -3 110 -51 139 -36 22 -38 25 -19 31 11 3 28 13 36 22 16 16 105
43 143 43 12 0 22 4 22 10 0 10 104 19 160 14 19 -2 55 -8 80 -14z m760 -42
c0 -3 14 -11 30 -17 31 -10 39 -31 18 -49 -7 -5 -22 -6 -33 -2 -11 4 -25 5
-31 3 -5 -2 -18 5 -28 16 -14 15 -16 29 -10 67 l7 48 23 -30 c13 -16 24 -32
24 -36z m71 9 c14 -26 8 -29 -30 -16 -26 9 -51 34 -51 52 0 13 73 -19 81 -36z
m-206 -28 c-3 -9 -1 -36 5 -60 21 -81 28 -134 22 -168 -5 -31 -6 -32 -18 -16
-10 13 -10 21 -1 36 9 15 7 23 -15 46 -31 33 -31 33 -29 137 1 79 1 79 21 61
12 -11 18 -26 15 -36z m-2469 -6 c12 -4 5 -10 -27 -18 -24 -7 -53 -16 -64 -20
-18 -8 -19 -7 -5 9 24 30 63 42 96 29z m157 -54 c20 -17 37 -36 37 -42 0 -7
-5 -4 -11 5 -5 10 -27 29 -47 43 -20 14 -32 25 -27 25 6 0 27 -14 48 -31z
m-413 0 c0 -11 -4 -17 -10 -14 -5 3 -10 13 -10 21 0 8 5 14 10 14 6 0 10 -9
10 -21z m179 -26 c-13 -16 -27 -32 -31 -37 -5 -6 -8 -5 -8 2 0 14 44 62 56 62
4 0 -3 -12 -17 -27z m2651 -15 c19 -25 21 -35 11 -49 -6 -10 -11 -25 -11 -33
0 -8 -4 -17 -10 -21 -7 -5 -50 109 -50 135 0 18 39 -3 60 -32z m-1270 27 c0
-2 -10 -9 -22 -15 -22 -11 -22 -10 -4 4 21 17 26 19 26 11z m-67 -85 c3 -11 1
-18 -4 -14 -5 3 -9 12 -9 20 0 20 7 17 13 -6z m1461 4 c3 -9 6 -23 6 -32 0
-13 -5 -11 -19 8 -19 23 -19 40 -1 40 4 0 11 -7 14 -16z m-2654 -4 c0 -5 -7
-10 -15 -10 -8 0 -15 5 -15 10 0 6 7 10 15 10 8 0 15 -4 15 -10z m1227 -12
c-3 -8 -6 -5 -6 6 -1 11 2 17 5 13 3 -3 4 -12 1 -19z m1442 -123 c1 -16 -3
-25 -7 -19 -4 6 -26 23 -49 38 -24 14 -43 29 -43 31 0 3 7 17 16 31 l17 24 33
-37 c22 -25 33 -48 33 -68z m-339 85 c0 -9 -31 -30 -45 -30 -3 0 -1 9 5 20 11
20 40 28 40 10z m-930 -33 c0 -26 -34 -67 -55 -67 -12 0 -12 5 -4 27 12 31 37
63 51 63 4 0 8 -10 8 -23z m-95 -57 c-3 -5 -11 -10 -16 -10 -6 0 -7 5 -4 10 3
6 11 10 16 10 6 0 7 -4 4 -10z"/>
<path d="M2617 2079 c-75 -83 -34 -169 80 -169 47 0 59 4 84 29 45 46 38 84
-29 146 -52 49 -88 47 -135 -6z"/>
<path d="M2209 1905 c-53 -29 -64 -112 -20 -156 36 -35 56 -36 117 -4 26 14
43 25 38 25 -5 0 1 7 13 15 11 8 23 28 25 45 6 37 -20 64 -77 79 -51 14 -64
13 -96 -4z"/>
<path d="M1543 1482 c-13 -12 -23 -25 -23 -27 0 -4 57 -86 205 -295 281 -396
540 -681 710 -783 88 -52 186 -87 246 -87 21 0 39 -4 39 -10 0 -10 50 -4 85
10 11 4 41 15 67 25 26 9 75 35 109 58 34 23 74 49 90 57 16 8 29 19 29 24 0
4 28 42 63 85 35 42 74 91 86 109 13 18 26 31 29 28 7 -8 55 64 57 84 1 22 66
133 83 143 17 11 142 263 142 287 0 10 11 42 24 72 30 67 22 94 -22 75 -32
-14 -42 -25 -42 -52 0 -27 -31 -106 -40 -100 -7 4 -85 -149 -85 -168 0 -23
-28 -77 -39 -77 -10 0 -100 -148 -102 -170 -1 -5 -2 -15 -3 -21 0 -5 -5 -8
-10 -5 -4 3 -25 -19 -46 -50 -21 -30 -46 -59 -57 -65 -10 -5 -18 -14 -18 -20
0 -6 -16 -29 -35 -51 -19 -22 -33 -44 -32 -48 3 -9 -58 -60 -71 -60 -5 0 -36
-16 -68 -35 -32 -19 -63 -35 -70 -35 -7 0 -20 -8 -29 -17 -15 -15 -27 -15
-113 -5 -165 19 -289 96 -489 305 -138 144 -268 311 -573 737 l-75 105 -22
-23z"/>
</g>
</svg>
